<?xml version="1.0" encoding="UTF-8"?>
<svg version="1.1" xmlns="http://www.w3.org/2000/svg" viewBox="0 0 1024 1024" preserveAspectRatio="xMidYMid meet">
<path d="M0 0 C4.27148234 2.71821604 7.04395576 5.93384613 8.56533813 10.81311035 C10.82721068 22.19314172 8.1458576 34.77913182 6.7265625 46.15625 C6.48391699 48.14910813 6.24200812 50.14205608 6.0007782 52.13508606 C5.48532885 56.38224111 4.9652323 60.62878976 4.4413147 64.87490845 C3.61761677 71.55135162 2.80412111 78.22901069 1.99291992 84.90698242 C1.71721302 87.17613271 1.44150194 89.44528249 1.16578674 91.71443176 C1.02855257 92.84403635 0.8913184 93.97364094 0.74992561 95.13747597 C0.33025467 98.58882927 -0.09043936 102.04005657 -0.5113678 105.49125671 C-3.30645523 128.42351861 -6.00484153 151.3668569 -8.6875 174.3125 C-9.40962141 180.48843711 -10.13215461 186.66432521 -10.85597801 192.8400631 C-11.12759724 195.16036109 -11.39812226 197.48078469 -11.66853333 199.80122375 C-11.83195536 201.1973218 -11.99542012 202.59341484 -12.15893555 203.98950195 C-12.2981694 205.18235306 -12.43740326 206.37520416 -12.58085632 207.60420227 C-13.00946666 211.07669655 -13.49409012 214.53799463 -14 218 C-5.20154998 213.65538606 3.55376263 209.2336618 12.25 204.6875 C13.05928955 204.26742676 13.8685791 203.84735352 14.70239258 203.41455078 C15.84744263 202.81296143 15.84744263 202.81296143 17.015625 202.19921875 C17.68883789 201.84690186 18.36205078 201.49458496 19.05566406 201.1315918 C23.56105335 198.57787286 23.56105335 198.57787286 26.125 194.171875 C26.41375 193.04265625 26.7025 191.9134375 27 190.75 C27.33 189.50089844 27.66 188.25179687 28 186.96484375 C28.33418454 185.64344415 28.66751368 184.32182793 29 183 C35.26938776 158.73061224 35.26938776 158.73061224 38 156 C41.11369308 155.57923067 42.63665679 155.78964341 45.375 157.375 C49.23702569 163.61365688 45.51798024 172.40446854 43.9375 179.125 C43.30268809 181.75293461 42.65427623 184.37680879 42 187 C42.70125 186.55269531 43.4025 186.10539063 44.125 185.64453125 C46.09809455 184.38721964 48.07348081 183.13349934 50.05078125 181.8828125 C51.79013515 180.77239054 53.52086661 179.64789052 55.23046875 178.4921875 C59.75647493 175.47485004 63.55820737 173.70216679 69 173 C73.1495864 174.17441124 74.54932906 175.26960227 76.8125 178.9375 C80.58021308 189.68328523 78.80341894 201.87573778 78 213 C83.35175806 206.66147527 88.62570838 200.27399466 93.75 193.75 C94.215271 193.15840088 94.68054199 192.56680176 95.15991211 191.95727539 C97.6381519 188.79036449 100.03444579 185.58327447 102.375 182.3125 C105.3763394 178.30785572 107.97083186 176.33819469 113 175.5 C117.17661876 176.19610313 118.28246282 177.76129131 121 181 C122.58604601 184.05875211 123.82781829 187.22336866 125.0625 190.4375 C128.26698881 200.06751761 128.26698881 200.06751761 135 207 C140.78157425 207.57815742 145.31797824 206.41445001 150 203 C151.04595818 200.01231489 151.04595818 200.01231489 151.7265625 196.91796875 C155.37172501 181.78262008 161.28017041 166.94327533 174.75390625 158.12890625 C178.5377497 156.22711363 181.00837245 155.67620325 185.0625 157 C188.66816171 159.45491861 190.72663512 161.85961113 192 166 C192.97112887 175.51377092 188.0556056 184.23810186 182.33203125 191.4765625 C178.13931734 196.56730944 173.70537888 201.37970934 169 206 C169.33 206.66 169.66 207.32 170 208 C183.75954765 209.45689328 196.99463111 202.36426572 209.0625 196.5625 C210.36236394 195.94562834 211.66266845 195.32968433 212.96337891 194.71459961 C215.64963977 193.44346431 218.33401183 192.16846395 221.01708984 190.890625 C226.6738231 188.20046451 232.35413076 185.56106942 238.03353882 182.91921997 C245.9178975 179.25110706 253.79695076 175.57209031 261.65957642 171.85758972 C264.63410486 170.45237925 267.60982516 169.04970126 270.58551025 167.64694214 C272.02119713 166.96909697 273.45622329 166.28985052 274.89056396 165.60916138 C276.87858967 164.6657454 278.86873608 163.7269489 280.859375 162.7890625 C281.99858398 162.24975098 283.13779297 161.71043945 284.31152344 161.15478516 C287 160 287 160 289 160 C289.33 159.34 289.66 158.68 290 158 C291.84765625 157.3671875 291.84765625 157.3671875 294.0625 156.875 C294.79597656 156.70742188 295.52945313 156.53984375 296.28515625 156.3671875 C296.85105469 156.24601563 297.41695312 156.12484375 298 156 C297.67 155.01 297.34 154.02 297 153 C297.56227295 153.20214111 298.1245459 153.40428223 298.70385742 153.61254883 C301.65113488 154.10987252 303.03126567 153.42778118 305.73828125 152.19921875 C306.64126953 151.79896484 307.54425781 151.39871094 308.47460938 150.98632812 C309.41111328 150.55771484 310.34761719 150.12910156 311.3125 149.6875 C327.35848637 142.45282879 327.35848637 142.45282879 332 144 C332.75 146.25 332.75 146.25 333 149 C330.368736 152.15232543 327.60398279 153.94514568 323.95385742 155.75805664 C322.44398506 156.515187 322.44398506 156.515187 320.90361023 157.28761292 C319.81522354 157.82305222 318.72683685 158.35849152 317.60546875 158.91015625 C316.46709061 159.47770126 315.32871246 160.04524628 314.15583801 160.62998962 C311.11792865 162.14239834 308.07665682 163.6476009 305.03363037 165.1496582 C302.02624187 166.63669832 299.02425322 168.13451281 296.02148438 169.63085938 C283.07898665 176.06843721 270.08477392 182.38827806 257.03198242 188.59887695 C252.75875154 190.63325135 248.50115476 192.69716241 244.25390625 194.78515625 C180.18271552 226.21937311 180.18271552 226.21937311 162.875 220.8125 C160.48030052 219.8363474 158.68351288 218.77066151 156.57421875 217.2421875 C154.06306754 215.66496908 154.06306754 215.66496908 151.52734375 216.80078125 C150.67269531 217.29964844 149.81804688 217.79851562 148.9375 218.3125 C142.40513937 221.59190372 135.99188009 222.57735988 128.8984375 220.3359375 C122.32505818 217.00581142 117.78215989 210.64627084 115 204 C115 203.34 115 202.68 115 202 C114.34 201.67 113.68 201.34 113 201 C112.27306096 199.02111039 111.60183749 197.02045442 111 195 C107.26440732 198.58831125 104.02295163 202.38424646 100.875 206.5 C96.23575957 212.48817165 91.43103624 218.30657593 86.5078125 224.0625 C85.21520997 225.57657649 83.92463481 227.09289873 82.67041016 228.63891602 C79.71352608 232.28133467 77.509656 234.46671696 73 236 C68.65105513 236 66.76770451 235.74750176 63.625 232.6875 C61.31793422 228.87196814 60.8502583 225.9561317 61.0859375 221.54296875 C61.12920166 220.68405029 61.17246582 219.82513184 61.21704102 218.94018555 C61.29523071 217.5776062 61.29523071 217.5776062 61.375 216.1875 C61.44835571 214.79301636 61.44835571 214.79301636 61.52319336 213.37036133 C61.94213028 205.57545333 62.43788742 197.78585726 63 190 C59.57022555 191.50151416 56.29823988 193.2295606 53 195 C51.30556763 195.84776001 51.30556763 195.84776001 49.5769043 196.71264648 C42.52693166 200.65535543 38.48338219 204.57267042 36.11065674 212.42254639 C34.87677107 217.31396475 33.88376324 222.23362715 32.9375 227.1875 C32.5188513 229.16451533 32.09504775 231.14044633 31.66601562 233.11523438 C30.60387913 238.06047791 29.59719002 243.0151225 28.60614014 247.97503662 C27.57718796 253.11005816 26.52065657 258.23860833 25.44140625 263.36328125 C25.1624778 264.74485664 25.1624778 264.74485664 24.87791443 266.15434265 C21.6580023 281.3419977 21.6580023 281.3419977 17 286 C10.77705983 286.56572183 10.77705983 286.56572183 8.29711914 284.76025391 C5.37492441 280.7946932 6.7389616 274.92121491 7.36767578 270.29394531 C7.87372977 267.38941165 8.45295529 264.50957318 9.0625 261.625 C9.2793042 260.56587402 9.4961084 259.50674805 9.71948242 258.41552734 C11.79116339 248.52589703 14.23076808 238.73193829 16.76391602 228.95166016 C17.19982056 227.26242432 17.19982056 227.26242432 17.64453125 225.5390625 C17.90596924 224.54084473 18.16740723 223.54262695 18.43676758 222.51416016 C19.10930284 219.94150614 19.10930284 219.94150614 19 217 C18.05382812 217.53367187 17.10765625 218.06734375 16.1328125 218.6171875 C15.50262207 218.97159912 14.87243164 219.32601074 14.22314453 219.69116211 C12.80765964 220.48982236 11.3946175 221.29282543 9.98388672 222.09985352 C6.04001755 224.34419524 2.07714614 226.47933188 -2 228.47265625 C-2.81355957 228.88467285 -3.62711914 229.29668945 -4.46533203 229.72119141 C-6.04073581 230.51639522 -7.6302424 231.28440186 -9.23388672 232.02099609 C-13.31369229 234.11428325 -13.31369229 234.11428325 -15.71626282 237.852005 C-17.16979658 246.34325073 -18.0837265 254.8897099 -18.98828125 263.453125 C-19.17344892 265.17582002 -19.35893714 266.89848061 -19.54472351 268.62110901 C-20.03860268 273.21464055 -20.5260609 277.80883003 -21.01147461 282.40326309 C-21.31311399 285.25580634 -21.61620376 288.10819216 -21.91967773 290.96054077 C-24.39398028 314.23336289 -26.81653044 337.51037845 -29 360.8125 C-29.09954987 361.8578894 -29.19909973 362.90327881 -29.30166626 363.98034668 C-30.68396994 378.58556646 -32 393.31676035 -32 408 C-31.77973145 407.1970752 -31.55946289 406.39415039 -31.33251953 405.56689453 C-19.53717022 362.91563916 -3.65219816 316.82122427 26 283 C26.76441406 282.09121094 27.52882813 281.18242188 28.31640625 280.24609375 C33.50617646 274.21331518 37.89906681 269.64209238 45.9375 268 C50.79439205 267.65573754 54.09240602 269.20787168 58 272 C60.85999168 274.49216038 63.63247402 277.06507872 66.41015625 279.6484375 C71.92138961 284.65260415 76.46725144 286.8307874 84.0546875 286.5 C102.54449653 283.36114648 120.23495103 264.33508499 133.6015625 252.1796875 C135.2337364 250.69637637 136.87474918 249.22274608 138.5234375 247.7578125 C142.77241907 243.97948735 146.80636717 240.15741686 150.6875 236 C153.38644036 233.23862863 155.18559206 231.49023185 159.0625 230.9375 C160.031875 230.958125 161.00125 230.97875 162 231 C163.25 233.125 163.25 233.125 164 236 C159.02725371 246.18229003 148.5324645 254.64922119 140.625 262.5625 C139.75617187 263.44357422 138.88734375 264.32464844 137.9921875 265.23242188 C129.49054516 273.75292881 120.32793332 281.3089781 110.5 288.25 C109.415979 289.01630737 109.415979 289.01630737 108.31005859 289.7980957 C98.45238212 296.62340076 89.14566173 301.05893484 77 300 C68.72608259 298.31144543 63.06908997 293.03570644 56.98046875 287.55859375 C52.25598382 283.25704715 52.25598382 283.25704715 46.3125 282.1875 C43.84411164 282.86740098 43.84411164 282.86740098 42 285 C40.9047328 285.88936114 39.80824633 286.7772216 38.7109375 287.6640625 C34.99063055 290.84547346 32.31625699 294.30968751 29.625 298.375 C29.15731201 299.06980469 28.68962402 299.76460937 28.20776367 300.48046875 C23.38174059 307.75513942 19.07741978 315.28508757 15 323 C14.66403809 323.63341309 14.32807617 324.26682617 13.98193359 324.91943359 C11.54182755 329.56051291 9.23364429 334.25631802 7 339 C6.65501465 339.73154297 6.3100293 340.46308594 5.95458984 341.21679688 C-11.41820591 378.61557255 -21.40021611 419.44350422 -26.98046875 460.1484375 C-27.1508667 461.36200928 -27.32126465 462.57558105 -27.49682617 463.82592773 C-27.82194584 466.15950133 -28.13422083 468.49491681 -28.4309082 470.83227539 C-29.30224457 477.16251735 -30.28274865 483.63309963 -34 489 C-37.5 490.3125 -37.5 490.3125 -41 490 C-44.9655384 487.57661542 -46.00608499 483.8361197 -47.38671875 479.609375 C-60.20020931 425.09082917 -45.97647019 358.28807845 -41.06579208 303.02342606 C-40.87838572 300.91312516 -40.69192994 298.80274173 -40.50552368 296.69235229 C-38.97548466 279.42140433 -37.18959117 262.20060696 -35 245 C-35.91249512 245.36125977 -36.82499023 245.72251953 -37.76513672 246.09472656 C-60.01576826 254.88887134 -82.37167001 263.23097536 -105 271 C-105.88423645 271.30377563 -106.7684729 271.60755127 -107.67950439 271.92053223 C-121.54182198 276.68034112 -135.41818954 281.39823692 -149.30395508 286.08917236 C-151.78814369 286.92842679 -154.27201917 287.76860187 -156.75585938 288.60888672 C-199.16592513 302.94286708 -241.89395175 316.32006609 -284.60282898 329.73031616 C-292.97157438 332.35934962 -301.33622176 335.00117989 -309.69921875 337.6484375 C-331.6037041 344.58096256 -353.50820098 351.50581572 -375.48080444 358.21984863 C-387.69536439 361.95308257 -399.86454065 365.81137937 -412.00048828 369.79296875 C-433.69681253 376.88141918 -433.69681253 376.88141918 -441 376 C-444.0625 374.4375 -444.0625 374.4375 -446 372 C-446.06992968 368.15386742 -445.36987184 365.72293132 -443.625 362.3125 C-437.37029585 356.80240348 -427.47972889 355.14929845 -419.57421875 352.84765625 C-418.58195786 352.55541672 -417.58969696 352.26317719 -416.56736755 351.96208191 C-414.41001868 351.32692415 -412.25223217 350.69325131 -410.09405518 350.06091309 C-404.10331663 348.30511245 -398.11626013 346.53683275 -392.12890625 344.76953125 C-391.49190544 344.58163403 -390.85490463 344.3937368 -390.19860077 344.20014572 C-373.49106126 339.27135928 -356.80777998 334.26182821 -340.125 329.25 C-339.37387058 329.0243549 -338.62274117 328.79870979 -337.84885025 328.56622696 C-328.9606436 325.89608803 -328.9606436 325.89608803 -320.0726223 323.22533226 C-311.26474286 320.57834521 -302.45476896 317.93856773 -293.640625 315.3125 C-278.80092005 310.88895175 -263.98568987 306.42662436 -249.26025391 301.6328125 C-238.82640707 298.24125051 -228.35312274 294.98157107 -217.8770752 291.72314453 C-187.96367401 282.41410623 -158.06876413 273.07910243 -128.6171875 262.3828125 C-122.94108565 260.32474177 -117.23810664 258.35555042 -111.52294922 256.40893555 C-85.33067359 247.48615501 -59.44149033 237.88937989 -34 227 C-31.10455457 201.94002057 -28.58112767 176.85915951 -26.31496048 151.73477554 C-26.05825961 148.8905163 -25.80031523 146.04637173 -25.54220581 143.20223999 C-23.19090815 117.25323141 -20.99245798 91.29633019 -19.0625 65.3125 C-19.01132648 64.6269743 -18.96015297 63.94144859 -18.90742874 63.23514938 C-17.35077703 42.5610517 -17.35077703 42.5610517 -16.42604065 21.85115051 C-15.89492451 7.32128253 -15.89492451 7.32128253 -11.5 1.9375 C-7.25183993 -1.35482405 -5.27921848 -1.16321763 0 0 Z M178 171 C173.22174348 176.11162326 169.43474691 181.37409671 167 188 C167.33 188.66 167.66 189.32 168 190 C172.71930434 185.01556621 176.39975206 180.39227618 179 174 C178.67 173.01 178.34 172.02 178 171 Z " fill="#040404" transform="translate(551,266)"/>
<path d="M0 0 C0 0.33 0 0.66 0 1 C-1.794375 1.0928125 -1.794375 1.0928125 -3.625 1.1875 C-8.40730383 1.74912287 -10.60507231 3.68994551 -14 7 C-13.07739356 3.89668743 -12.29502729 2.25288053 -9.8125 0.125 C-6.18743997 -1.32502401 -3.76303616 -0.81163525 0 0 Z " fill="#252323" transform="translate(551,266)"/>
<path d="M0 0 C0.66 0.33 1.32 0.66 2 1 C-0.64 3.64 -3.28 6.28 -6 9 C-6 6 -6 6 -3.5625 3.375 C-2.716875 2.59125 -1.87125 1.8075 -1 1 C-0.67 0.67 -0.34 0.34 0 0 Z " fill="#171717" transform="translate(659,443)"/>
<path d="M0 0 C2 1 2 1 2 1 Z " fill="#464647" transform="translate(511,757)"/>
<path d="M0 0 C2 1 2 1 2 1 Z " fill="#2E2D2D" transform="translate(438,540)"/>
<path d="" fill="#32302F" transform="translate(0,0)"/>
<path d="" fill="#282726" transform="translate(0,0)"/>
<path d="" fill="#2D2D2F" transform="translate(0,0)"/>
<path d="" fill="#2D2E2D" transform="translate(0,0)"/>
<path d="M0 0 C2 1 2 1 2 1 Z " fill="#4F4E4E" transform="translate(880,408)"/>
<path d="" fill="#312F31" transform="translate(0,0)"/>
<path d="" fill="#5A5B5A" transform="translate(0,0)"/>
<path d="" fill="#535352" transform="translate(0,0)"/>
<path d="" fill="#616262" transform="translate(0,0)"/>
<path d="" fill="#3A3B3C" transform="translate(0,0)"/>
<path d="" fill="#363737" transform="translate(0,0)"/>
<path d="" fill="#2E302F" transform="translate(0,0)"/>
<path d="" fill="#2F312F" transform="translate(0,0)"/>
<path d="" fill="#312E2D" transform="translate(0,0)"/>
<path d="" fill="#2D2D2E" transform="translate(0,0)"/>
<path d="" fill="#393637" transform="translate(0,0)"/>
<path d="" fill="#383837" transform="translate(0,0)"/>
<path d="" fill="#242727" transform="translate(0,0)"/>
<path d="" fill="#2E2F2E" transform="translate(0,0)"/>
<path d="" fill="#2B2B2B" transform="translate(0,0)"/>
<path d="" fill="#626263" transform="translate(0,0)"/>
<path d="" fill="#252627" transform="translate(0,0)"/>
<path d="" fill="#2D2C2E" transform="translate(0,0)"/>
<path d="" fill="#2E2D2D" transform="translate(0,0)"/>
<path d="" fill="#2C2B2B" transform="translate(0,0)"/>
<path d="" fill="#302F30" transform="translate(0,0)"/>
<path d="" fill="#2F2E2F" transform="translate(0,0)"/>
<path d="" fill="#2B2A27" transform="translate(0,0)"/>
<path d="" fill="#2C2B2C" transform="translate(0,0)"/>
<path d="" fill="#272628" transform="translate(0,0)"/>
<path d="" fill="#2D2C2C" transform="translate(0,0)"/>
<path d="" fill="#2D2B2D" transform="translate(0,0)"/>
<path d="" fill="#2C2C2B" transform="translate(0,0)"/>
<path d="" fill="#28282A" transform="translate(0,0)"/>
<path d="" fill="#252525" transform="translate(0,0)"/>
<path d="" fill="#2F2E2E" transform="translate(0,0)"/>
<path d="" fill="#2E2D2C" transform="translate(0,0)"/>
<path d="" fill="#292829" transform="translate(0,0)"/>
<path d="" fill="#2C2E2F" transform="translate(0,0)"/>
<path d="" fill="#2A272C" transform="translate(0,0)"/>
<path d="" fill="#333232" transform="translate(0,0)"/>
<path d="" fill="#2F2F2E" transform="translate(0,0)"/>
<path d="" fill="#312E2E" transform="translate(0,0)"/>
<path d="" fill="#2A2927" transform="translate(0,0)"/>
<path d="" fill="#2C2D2B" transform="translate(0,0)"/>
<path d="" fill="#2C2B2B" transform="translate(0,0)"/>
<path d="" fill="#323031" transform="translate(0,0)"/>
<path d="" fill="#383733" transform="translate(0,0)"/>
<path d="" fill="#2C2B2A" transform="translate(0,0)"/>
<path d="" fill="#2E2D2C" transform="translate(0,0)"/>
<path d="" fill="#2C2C2B" transform="translate(0,0)"/>
<path d="" fill="#2E2B2D" transform="translate(0,0)"/>
<path d="" fill="#2C2B2B" transform="translate(0,0)"/>
<path d="" fill="#312D2E" transform="translate(0,0)"/>
<path d="" fill="#2D2E2C" transform="translate(0,0)"/>
<path d="" fill="#2E2C2B" transform="translate(0,0)"/>
<path d="" fill="#2D2C2C" transform="translate(0,0)"/>
<path d="" fill="#2A292A" transform="translate(0,0)"/>
<path d="" fill="#272726" transform="translate(0,0)"/>
<path d="" fill="#302E2E" transform="translate(0,0)"/>
<path d="" fill="#282626" transform="translate(0,0)"/>
<path d="" fill="#323231" transform="translate(0,0)"/>
<path d="" fill="#28292A" transform="translate(0,0)"/>
<path d="" fill="#2F2E30" transform="translate(0,0)"/>
<path d="" fill="#30312F" transform="translate(0,0)"/>
<path d="" fill="#363838" transform="translate(0,0)"/>
<path d="" fill="#302E2F" transform="translate(0,0)"/>
<path d="" fill="#2E2F2E" transform="translate(0,0)"/>
<path d="" fill="#30302F" transform="translate(0,0)"/>
<path d="" fill="#2E2C2E" transform="translate(0,0)"/>
<path d="" fill="#2F2E2F" transform="translate(0,0)"/>
<path d="" fill="#303030" transform="translate(0,0)"/>
<path d="" fill="#34312F" transform="translate(0,0)"/>
<path d="" fill="#333332" transform="translate(0,0)"/>
<path d="" fill="#30302D" transform="translate(0,0)"/>
<path d="" fill="#2F2F2D" transform="translate(0,0)"/>
<path d="" fill="#2B2D2A" transform="translate(0,0)"/>
<path d="" fill="#292A2A" transform="translate(0,0)"/>
<path d="" fill="#2B282B" transform="translate(0,0)"/>
<path d="" fill="#333132" transform="translate(0,0)"/>
<path d="" fill="#2B2B2A" transform="translate(0,0)"/>
<path d="" fill="#313130" transform="translate(0,0)"/>
<path d="" fill="#333332" transform="translate(0,0)"/>
<path d="" fill="#2B292A" transform="translate(0,0)"/>
<path d="" fill="#2C2D29" transform="translate(0,0)"/>
<path d="" fill="#2A2929" transform="translate(0,0)"/>
<path d="" fill="#2A2928" transform="translate(0,0)"/>
<path d="" fill="#2C2B2A" transform="translate(0,0)"/>
<path d="" fill="#2D2B2C" transform="translate(0,0)"/>
<path d="" fill="#252624" transform="translate(0,0)"/>
<path d="" fill="#30302F" transform="translate(0,0)"/>
<path d="" fill="#2B2A2A" transform="translate(0,0)"/>
<path d="" fill="#282727" transform="translate(0,0)"/>
<path d="" fill="#2A2827" transform="translate(0,0)"/>
<path d="" fill="#232322" transform="translate(0,0)"/>
<path d="" fill="#252423" transform="translate(0,0)"/>
<path d="" fill="#302F2F" transform="translate(0,0)"/>
<path d="" fill="#282725" transform="translate(0,0)"/>
<path d="" fill="#312F2F" transform="translate(0,0)"/>
<path d="" fill="#2A2A27" transform="translate(0,0)"/>
<path d="" fill="#2A2A2B" transform="translate(0,0)"/>
<path d="" fill="#282928" transform="translate(0,0)"/>
<path d="" fill="#303032" transform="translate(0,0)"/>
<path d="" fill="#2E2E2D" transform="translate(0,0)"/>
<path d="" fill="#313030" transform="translate(0,0)"/>
<path d="" fill="#252527" transform="translate(0,0)"/>
<path d="" fill="#272725" transform="translate(0,0)"/>
<path d="" fill="#282728" transform="translate(0,0)"/>
<path d="" fill="#2C2B2C" transform="translate(0,0)"/>
<path d="" fill="#606061" transform="translate(0,0)"/>
<path d="" fill="#2D2B2C" transform="translate(0,0)"/>
<path d="" fill="#2E2E2B" transform="translate(0,0)"/>
<path d="" fill="#313030" transform="translate(0,0)"/>
<path d="" fill="#303033" transform="translate(0,0)"/>
<path d="" fill="#292828" transform="translate(0,0)"/>
<path d="" fill="#2D2E2F" transform="translate(0,0)"/>
<path d="" fill="#353532" transform="translate(0,0)"/>
<path d="" fill="#323332" transform="translate(0,0)"/>
<path d="" fill="#343634" transform="translate(0,0)"/>
<path d="" fill="#383737" transform="translate(0,0)"/>
<path d="" fill="#373532" transform="translate(0,0)"/>
<path d="" fill="#363635" transform="translate(0,0)"/>
<path d="" fill="#3B3C3A" transform="translate(0,0)"/>
<path d="" fill="#2F2F2F" transform="translate(0,0)"/>
<path d="" fill="#3C3C3B" transform="translate(0,0)"/>
<path d="" fill="#2E2D30" transform="translate(0,0)"/>
<path d="" fill="#313231" transform="translate(0,0)"/>
<path d="" fill="#58595A" transform="translate(0,0)"/>
<path d="" fill="#5D5E5E" transform="translate(0,0)"/>
<path d="" fill="#5E5F60" transform="translate(0,0)"/>
<path d="" fill="#646464" transform="translate(0,0)"/>
<path d="" fill="#454341" transform="translate(0,0)"/>
<path d="" fill="#686868" transform="translate(0,0)"/>
<path d="" fill="#606160" transform="translate(0,0)"/>
<path d="" fill="#676868" transform="translate(0,0)"/>
</svg>
