<?xml version="1.0" encoding="UTF-8"?>
<svg xmlns="http://www.w3.org/2000/svg" xmlns:xlink="http://www.w3.org/1999/xlink" width="100px" height="100px" viewBox="0 0 100 100" version="1.1">
<g id="surface1">
<path style=" stroke:none;fill-rule:nonzero;fill:rgb(1.568628%,1.568628%,1.568628%);fill-opacity:1;" d="M 53.808594 25.976562 C 54.226562 26.242188 54.496094 26.554688 54.644531 27.03125 C 54.867188 28.144531 54.605469 29.371094 54.464844 30.484375 C 54.441406 30.679688 54.417969 30.875 54.394531 31.066406 C 54.34375 31.484375 54.292969 31.898438 54.242188 32.3125 C 54.160156 32.964844 54.082031 33.617188 54.003906 34.269531 C 53.976562 34.488281 53.949219 34.710938 53.921875 34.933594 C 53.910156 35.042969 53.894531 35.152344 53.882812 35.265625 C 53.839844 35.605469 53.800781 35.941406 53.757812 36.277344 C 53.484375 38.519531 53.222656 40.757812 52.960938 43 C 52.890625 43.601562 52.820312 44.207031 52.75 44.808594 C 52.722656 45.035156 52.695312 45.261719 52.667969 45.488281 C 52.652344 45.625 52.636719 45.761719 52.621094 45.898438 C 52.609375 46.015625 52.59375 46.128906 52.578125 46.25 C 52.539062 46.589844 52.492188 46.925781 52.441406 47.265625 C 53.300781 46.839844 54.15625 46.410156 55.003906 45.964844 C 55.082031 45.925781 55.164062 45.882812 55.246094 45.839844 C 55.355469 45.78125 55.355469 45.78125 55.46875 45.722656 C 55.535156 45.6875 55.601562 45.652344 55.667969 45.617188 C 56.109375 45.367188 56.109375 45.367188 56.359375 44.9375 C 56.386719 44.828125 56.417969 44.71875 56.445312 44.605469 C 56.476562 44.484375 56.507812 44.359375 56.542969 44.234375 C 56.574219 44.105469 56.609375 43.976562 56.640625 43.847656 C 57.253906 41.476562 57.253906 41.476562 57.519531 41.210938 C 57.824219 41.167969 57.972656 41.191406 58.238281 41.34375 C 58.617188 41.953125 58.253906 42.8125 58.097656 43.46875 C 58.039062 43.726562 57.972656 43.980469 57.910156 44.238281 C 57.980469 44.195312 58.046875 44.152344 58.117188 44.105469 C 58.308594 43.984375 58.503906 43.859375 58.695312 43.738281 C 58.867188 43.628906 59.035156 43.519531 59.203125 43.40625 C 59.644531 43.113281 60.015625 42.941406 60.546875 42.871094 C 60.953125 42.984375 61.089844 43.09375 61.308594 43.449219 C 61.679688 44.5 61.503906 45.691406 61.425781 46.777344 C 61.949219 46.160156 62.464844 45.535156 62.964844 44.898438 C 63.007812 44.839844 63.054688 44.78125 63.101562 44.722656 C 63.34375 44.414062 63.578125 44.101562 63.804688 43.78125 C 64.097656 43.390625 64.351562 43.195312 64.84375 43.117188 C 65.25 43.183594 65.359375 43.335938 65.625 43.652344 C 65.78125 43.949219 65.902344 44.261719 66.023438 44.574219 C 66.335938 45.515625 66.335938 45.515625 66.992188 46.191406 C 67.558594 46.246094 68 46.132812 68.457031 45.800781 C 68.558594 45.507812 68.558594 45.507812 68.625 45.207031 C 68.980469 43.730469 69.558594 42.28125 70.875 41.417969 C 71.242188 41.234375 71.484375 41.179688 71.882812 41.308594 C 72.234375 41.546875 72.433594 41.78125 72.558594 42.1875 C 72.652344 43.117188 72.171875 43.96875 71.613281 44.675781 C 71.203125 45.171875 70.773438 45.640625 70.3125 46.09375 C 70.34375 46.15625 70.375 46.222656 70.410156 46.289062 C 71.753906 46.429688 73.046875 45.738281 74.226562 45.171875 C 74.351562 45.113281 74.480469 45.050781 74.605469 44.992188 C 74.867188 44.867188 75.128906 44.742188 75.390625 44.617188 C 75.945312 44.355469 76.5 44.097656 77.054688 43.839844 C 77.824219 43.480469 78.59375 43.121094 79.359375 42.757812 C 79.652344 42.621094 79.941406 42.484375 80.234375 42.347656 C 80.375 42.28125 80.511719 42.214844 80.652344 42.148438 C 80.847656 42.058594 81.042969 41.964844 81.234375 41.875 C 81.347656 41.820312 81.457031 41.769531 81.574219 41.714844 C 81.835938 41.601562 81.835938 41.601562 82.03125 41.601562 C 82.0625 41.539062 82.09375 41.472656 82.128906 41.40625 C 82.308594 41.34375 82.308594 41.34375 82.527344 41.296875 C 82.597656 41.28125 82.667969 41.261719 82.742188 41.246094 C 82.796875 41.234375 82.851562 41.222656 82.910156 41.210938 C 82.878906 41.113281 82.84375 41.015625 82.8125 40.917969 C 82.867188 40.9375 82.921875 40.957031 82.980469 40.976562 C 83.265625 41.027344 83.402344 40.960938 83.664062 40.839844 C 83.753906 40.800781 83.84375 40.761719 83.933594 40.722656 C 84.023438 40.679688 84.117188 40.636719 84.210938 40.59375 C 85.777344 39.886719 85.777344 39.886719 86.230469 40.039062 C 86.304688 40.257812 86.304688 40.257812 86.328125 40.527344 C 86.070312 40.835938 85.800781 41.011719 85.445312 41.1875 C 85.296875 41.261719 85.296875 41.261719 85.148438 41.335938 C 85.039062 41.390625 84.933594 41.441406 84.824219 41.496094 C 84.714844 41.550781 84.601562 41.605469 84.488281 41.664062 C 84.191406 41.8125 83.894531 41.957031 83.597656 42.105469 C 83.304688 42.25 83.011719 42.394531 82.71875 42.542969 C 81.453125 43.171875 80.183594 43.789062 78.910156 44.394531 C 78.492188 44.59375 78.078125 44.792969 77.660156 45 C 71.40625 48.066406 71.40625 48.066406 69.714844 47.539062 C 69.480469 47.445312 69.304688 47.339844 69.097656 47.191406 C 68.855469 47.039062 68.855469 47.039062 68.605469 47.148438 C 68.523438 47.195312 68.4375 47.246094 68.351562 47.296875 C 67.714844 47.617188 67.089844 47.710938 66.394531 47.492188 C 65.753906 47.167969 65.3125 46.546875 65.039062 45.898438 C 65.039062 45.835938 65.039062 45.769531 65.039062 45.703125 C 64.976562 45.671875 64.910156 45.640625 64.84375 45.605469 C 64.773438 45.414062 64.707031 45.21875 64.648438 45.019531 C 64.285156 45.371094 63.96875 45.742188 63.660156 46.140625 C 63.207031 46.726562 62.738281 47.296875 62.257812 47.859375 C 62.128906 48.003906 62.003906 48.152344 61.882812 48.304688 C 61.59375 48.660156 61.378906 48.875 60.9375 49.023438 C 60.511719 49.023438 60.328125 49 60.023438 48.699219 C 59.796875 48.328125 59.75 48.042969 59.773438 47.613281 C 59.777344 47.527344 59.78125 47.445312 59.785156 47.359375 C 59.792969 47.222656 59.792969 47.222656 59.800781 47.089844 C 59.808594 46.953125 59.808594 46.953125 59.816406 46.8125 C 59.859375 46.050781 59.90625 45.292969 59.960938 44.53125 C 59.625 44.679688 59.304688 44.847656 58.984375 45.019531 C 58.820312 45.101562 58.820312 45.101562 58.648438 45.1875 C 57.960938 45.570312 57.566406 45.953125 57.335938 46.722656 C 57.214844 47.199219 57.117188 47.679688 57.023438 48.164062 C 56.984375 48.355469 56.941406 48.550781 56.902344 48.742188 C 56.796875 49.226562 56.699219 49.707031 56.601562 50.191406 C 56.5 50.695312 56.398438 51.195312 56.292969 51.695312 C 56.265625 51.832031 56.265625 51.832031 56.238281 51.96875 C 55.921875 53.453125 55.921875 53.453125 55.46875 53.90625 C 54.859375 53.960938 54.859375 53.960938 54.617188 53.785156 C 54.332031 53.398438 54.464844 52.824219 54.527344 52.371094 C 54.578125 52.089844 54.632812 51.808594 54.695312 51.527344 C 54.714844 51.421875 54.734375 51.320312 54.757812 51.210938 C 54.960938 50.246094 55.199219 49.289062 55.445312 48.335938 C 55.488281 48.171875 55.488281 48.171875 55.53125 48 C 55.558594 47.90625 55.582031 47.808594 55.609375 47.707031 C 55.675781 47.457031 55.675781 47.457031 55.664062 47.167969 C 55.570312 47.21875 55.480469 47.273438 55.382812 47.324219 C 55.324219 47.359375 55.261719 47.394531 55.199219 47.429688 C 55.058594 47.507812 54.921875 47.585938 54.785156 47.664062 C 54.398438 47.886719 54.011719 48.09375 53.613281 48.289062 C 53.535156 48.328125 53.453125 48.367188 53.371094 48.410156 C 53.21875 48.488281 53.0625 48.5625 52.90625 48.636719 C 52.507812 48.839844 52.507812 48.839844 52.273438 49.203125 C 52.132812 50.035156 52.042969 50.867188 51.953125 51.703125 C 51.9375 51.871094 51.917969 52.039062 51.898438 52.210938 C 51.851562 52.65625 51.804688 53.105469 51.757812 53.554688 C 51.726562 53.832031 51.699219 54.113281 51.667969 54.390625 C 51.425781 56.664062 51.191406 58.9375 50.976562 61.210938 C 50.96875 61.3125 50.957031 61.417969 50.945312 61.523438 C 50.8125 62.949219 50.683594 64.386719 50.683594 65.820312 C 50.707031 65.742188 50.726562 65.664062 50.75 65.582031 C 51.902344 61.417969 53.453125 56.917969 56.347656 53.613281 C 56.421875 53.523438 56.496094 53.4375 56.574219 53.34375 C 57.082031 52.753906 57.507812 52.308594 58.292969 52.148438 C 58.769531 52.113281 59.089844 52.265625 59.472656 52.539062 C 59.75 52.78125 60.023438 53.035156 60.292969 53.285156 C 60.832031 53.773438 61.277344 53.988281 62.015625 53.953125 C 63.824219 53.648438 65.550781 51.789062 66.855469 50.601562 C 67.015625 50.457031 67.175781 50.316406 67.335938 50.171875 C 67.75 49.800781 68.144531 49.429688 68.523438 49.023438 C 68.789062 48.753906 68.964844 48.582031 69.34375 48.527344 C 69.4375 48.53125 69.53125 48.53125 69.628906 48.535156 C 69.75 48.742188 69.75 48.742188 69.824219 49.023438 C 69.339844 50.019531 68.3125 50.84375 67.542969 51.617188 C 67.457031 51.703125 67.371094 51.789062 67.285156 51.878906 C 66.453125 52.710938 65.558594 53.449219 64.601562 54.125 C 64.492188 54.199219 64.492188 54.199219 64.386719 54.277344 C 63.421875 54.945312 62.515625 55.375 61.328125 55.273438 C 60.519531 55.109375 59.96875 54.59375 59.375 54.058594 C 58.910156 53.636719 58.910156 53.636719 58.332031 53.535156 C 58.089844 53.601562 58.089844 53.601562 57.910156 53.808594 C 57.804688 53.894531 57.695312 53.980469 57.589844 54.070312 C 57.226562 54.378906 56.964844 54.71875 56.703125 55.113281 C 56.65625 55.183594 56.609375 55.25 56.5625 55.320312 C 56.09375 56.03125 55.671875 56.765625 55.273438 57.519531 C 55.242188 57.582031 55.207031 57.644531 55.175781 57.707031 C 54.9375 58.160156 54.710938 58.617188 54.492188 59.082031 C 54.457031 59.152344 54.425781 59.226562 54.390625 59.296875 C 52.695312 62.949219 51.71875 66.9375 51.171875 70.914062 C 51.15625 71.03125 51.140625 71.148438 51.125 71.273438 C 51.089844 71.5 51.0625 71.726562 51.03125 71.957031 C 50.945312 72.574219 50.851562 73.207031 50.488281 73.730469 C 50.148438 73.859375 50.148438 73.859375 49.804688 73.828125 C 49.417969 73.589844 49.316406 73.226562 49.179688 72.8125 C 47.929688 67.488281 49.320312 60.964844 49.796875 55.570312 C 49.816406 55.363281 49.835938 55.15625 49.851562 54.949219 C 50.003906 53.265625 50.175781 51.582031 50.390625 49.902344 C 50.300781 49.9375 50.210938 49.972656 50.121094 50.007812 C 47.949219 50.867188 45.765625 51.683594 43.554688 52.441406 C 43.46875 52.472656 43.382812 52.5 43.292969 52.53125 C 41.9375 52.996094 40.585938 53.457031 39.226562 53.914062 C 38.984375 53.996094 38.742188 54.078125 38.5 54.160156 C 34.359375 55.5625 30.1875 56.867188 26.015625 58.175781 C 25.199219 58.433594 24.382812 58.691406 23.566406 58.949219 C 21.425781 59.628906 19.285156 60.304688 17.140625 60.957031 C 15.949219 61.324219 14.757812 61.699219 13.574219 62.089844 C 11.457031 62.78125 11.457031 62.78125 10.742188 62.695312 C 10.441406 62.542969 10.441406 62.542969 10.253906 62.304688 C 10.246094 61.929688 10.316406 61.691406 10.484375 61.359375 C 11.097656 60.820312 12.0625 60.660156 12.835938 60.433594 C 12.929688 60.40625 13.027344 60.378906 13.128906 60.347656 C 13.339844 60.285156 13.550781 60.222656 13.761719 60.164062 C 14.34375 59.992188 14.929688 59.816406 15.515625 59.644531 C 15.578125 59.628906 15.640625 59.609375 15.703125 59.589844 C 17.335938 59.109375 18.964844 58.621094 20.59375 58.128906 C 20.667969 58.109375 20.738281 58.085938 20.816406 58.0625 C 21.683594 57.800781 21.683594 57.800781 22.550781 57.542969 C 23.410156 57.28125 24.273438 57.023438 25.132812 56.769531 C 26.582031 56.335938 28.027344 55.902344 29.464844 55.433594 C 30.484375 55.101562 31.507812 54.785156 32.53125 54.464844 C 35.453125 53.554688 38.371094 52.644531 41.25 51.601562 C 41.800781 51.398438 42.359375 51.207031 42.917969 51.015625 C 45.476562 50.144531 48.003906 49.207031 50.488281 48.144531 C 50.769531 45.699219 51.015625 43.246094 51.238281 40.792969 C 51.265625 40.515625 51.289062 40.238281 51.3125 39.960938 C 51.542969 37.425781 51.757812 34.890625 51.945312 32.355469 C 51.953125 32.289062 51.957031 32.222656 51.960938 32.152344 C 52.113281 30.132812 52.113281 30.132812 52.203125 28.109375 C 52.257812 26.691406 52.257812 26.691406 52.6875 26.164062 C 53.101562 25.84375 53.292969 25.863281 53.808594 25.976562 Z M 71.191406 42.675781 C 70.726562 43.175781 70.355469 43.6875 70.117188 44.335938 C 70.148438 44.398438 70.179688 44.464844 70.214844 44.53125 C 70.675781 44.042969 71.035156 43.59375 71.289062 42.96875 C 71.257812 42.871094 71.226562 42.773438 71.191406 42.675781 Z M 71.191406 42.675781 "/>
<path style=" stroke:none;fill-rule:nonzero;fill:rgb(14.509805%,13.725491%,13.725491%);fill-opacity:1;" d="M 53.808594 25.976562 C 53.808594 26.007812 53.808594 26.039062 53.808594 26.074219 C 53.632812 26.082031 53.632812 26.082031 53.453125 26.09375 C 52.988281 26.148438 52.773438 26.335938 52.441406 26.660156 C 52.53125 26.355469 52.609375 26.195312 52.851562 25.988281 C 53.203125 25.847656 53.441406 25.898438 53.808594 25.976562 Z M 53.808594 25.976562 "/>
<path style=" stroke:none;fill-rule:nonzero;fill:rgb(9.019608%,9.019608%,9.019608%);fill-opacity:1;" d="M 64.355469 43.261719 C 64.421875 43.292969 64.484375 43.328125 64.550781 43.359375 C 64.292969 43.617188 64.035156 43.875 63.769531 44.140625 C 63.769531 43.847656 63.769531 43.847656 64.007812 43.589844 C 64.089844 43.515625 64.171875 43.4375 64.257812 43.359375 C 64.289062 43.328125 64.320312 43.296875 64.355469 43.261719 Z M 64.355469 43.261719 "/>
<path style=" stroke:none;fill-rule:nonzero;fill:rgb(27.450982%,27.450982%,27.843139%);fill-opacity:1;" d="M 49.902344 73.925781 C 50.097656 74.023438 50.097656 74.023438 50.097656 74.023438 Z M 49.902344 73.925781 "/>
<path style=" stroke:none;fill-rule:nonzero;fill:rgb(18.039216%,17.647059%,17.647059%);fill-opacity:1;" d="M 42.773438 52.734375 C 42.96875 52.832031 42.96875 52.832031 42.96875 52.832031 Z M 42.773438 52.734375 "/>
<path style=" stroke:none;fill-rule:nonzero;fill:rgb(30.980393%,30.588236%,30.588236%);fill-opacity:1;" d="M 85.9375 39.84375 C 86.132812 39.941406 86.132812 39.941406 86.132812 39.941406 Z M 85.9375 39.84375 "/>
</g>
</svg>
